<svg width="234" height="234" viewBox="0 0 234 234" fill="none" xmlns="http://www.w3.org/2000/svg">
<g filter="url(#filter0_ddd_8621_8402)">
<rect x="17" y="14" width="200" height="200" rx="100" fill="#F3E2C6" shape-rendering="crispEdges"/>
<g filter="url(#filter1_d_8621_8402)">
<path fill-rule="evenodd" clip-rule="evenodd" d="M117 14C172.228 14 217 58.7715 217 114C217 169.228 172.228 214 117 214C61.7715 214 17 169.228 17 114C17 58.7715 61.7715 14 117 14ZM117 47.3333C153.819 47.3333 183.667 77.181 183.667 114C183.667 150.819 153.819 180.667 117 180.667C80.181 180.667 50.3333 150.819 50.3333 114C50.3333 77.181 80.181 47.3333 117 47.3333Z" fill="black"/>
<path d="M217.5 114C217.5 58.4954 172.505 13.5 117 13.5V14.5C171.952 14.5 216.5 59.0477 216.5 114H217.5ZM117 214.5C172.505 214.5 217.5 169.505 217.5 114H216.5C216.5 168.952 171.952 213.5 117 213.5V214.5ZM16.5 114C16.5 169.505 61.4954 214.5 117 214.5V213.5C62.0477 213.5 17.5 168.952 17.5 114H16.5ZM117 13.5C61.4954 13.5 16.5 58.4954 16.5 114H17.5C17.5 59.0477 62.0477 14.5 117 14.5V13.5ZM184.167 114C184.167 76.9049 154.095 46.8333 117 46.8333V47.8333C153.543 47.8333 183.167 77.4572 183.167 114H184.167ZM117 181.167C154.095 181.167 184.167 151.095 184.167 114H183.167C183.167 150.543 153.543 180.167 117 180.167V181.167ZM49.8333 114C49.8333 151.095 79.9049 181.167 117 181.167V180.167C80.4572 180.167 50.8333 150.543 50.8333 114H49.8333ZM117 46.8333C79.9049 46.8333 49.8333 76.9049 49.8333 114H50.8333C50.8333 77.4572 80.4572 47.8333 117 47.8333V46.8333Z" fill="black"/>
</g>
<g filter="url(#filter2_d_8621_8402)">
<path d="M119.667 53.9999C119.667 52.5272 118.473 51.3333 117 51.3333C115.527 51.3333 114.333 52.5272 114.333 53.9999C114.333 55.4727 115.527 56.6666 117 56.6666C118.473 56.6666 119.667 55.4727 119.667 53.9999Z" fill="black"/>
<path d="M119.667 53.9999C119.667 52.5272 118.473 51.3333 117 51.3333C115.527 51.3333 114.333 52.5272 114.333 53.9999C114.333 55.4727 115.527 56.6666 117 56.6666C118.473 56.6666 119.667 55.4727 119.667 53.9999Z" stroke="black"/>
</g>
<g filter="url(#filter3_d_8621_8402)">
<path d="M122.333 114C122.333 111.055 119.946 108.667 117 108.667C114.055 108.667 111.667 111.055 111.667 114C111.667 116.946 114.055 119.333 117 119.333C119.946 119.333 122.333 116.946 122.333 114Z" fill="black"/>
<path d="M122.333 114C122.333 111.055 119.946 108.667 117 108.667C114.055 108.667 111.667 111.055 111.667 114C111.667 116.946 114.055 119.333 117 119.333C119.946 119.333 122.333 116.946 122.333 114Z" stroke="black"/>
</g>
<g filter="url(#filter4_d_8621_8402)">
<path d="M161 72.6666C161 71.9302 160.403 71.3333 159.667 71.3333C158.93 71.3333 158.333 71.9302 158.333 72.6666C158.333 73.403 158.93 73.9999 159.667 73.9999C160.403 73.9999 161 73.403 161 72.6666Z" fill="black"/>
<path d="M161 72.6666C161 71.9302 160.403 71.3333 159.667 71.3333C158.93 71.3333 158.333 71.9302 158.333 72.6666C158.333 73.403 158.93 73.9999 159.667 73.9999C160.403 73.9999 161 73.403 161 72.6666Z" stroke="black"/>
</g>
<g filter="url(#filter5_d_8621_8402)">
<path d="M142.333 59.3333C142.333 58.597 141.736 58 141 58C140.264 58 139.667 58.597 139.667 59.3333C139.667 60.0697 140.264 60.6667 141 60.6667C141.736 60.6667 142.333 60.0697 142.333 59.3333Z" fill="black"/>
<path d="M142.333 59.3333C142.333 58.597 141.736 58 141 58C140.264 58 139.667 58.597 139.667 59.3333C139.667 60.0697 140.264 60.6667 141 60.6667C141.736 60.6667 142.333 60.0697 142.333 59.3333Z" stroke="black"/>
</g>
<g filter="url(#filter6_d_8621_8402)">
<path d="M173 91.3333C173 90.597 172.403 90 171.667 90C170.93 90 170.333 90.597 170.333 91.3333C170.333 92.0697 170.93 92.6667 171.667 92.6667C172.403 92.6667 173 92.0697 173 91.3333Z" fill="black"/>
<path d="M173 91.3333C173 90.597 172.403 90 171.667 90C170.93 90 170.333 90.597 170.333 91.3333C170.333 92.0697 170.93 92.6667 171.667 92.6667C172.403 92.6667 173 92.0697 173 91.3333Z" stroke="black"/>
</g>
<g filter="url(#filter7_d_8621_8402)">
<path d="M77 72.6666C77 71.9302 76.403 71.3333 75.6666 71.3333C74.9303 71.3333 74.3333 71.9302 74.3333 72.6666C74.3333 73.403 74.9303 73.9999 75.6666 73.9999C76.403 73.9999 77 73.403 77 72.6666Z" fill="black"/>
<path d="M77 72.6666C77 71.9302 76.403 71.3333 75.6666 71.3333C74.9303 71.3333 74.3333 71.9302 74.3333 72.6666C74.3333 73.403 74.9303 73.9999 75.6666 73.9999C76.403 73.9999 77 73.403 77 72.6666Z" stroke="black"/>
</g>
<g filter="url(#filter8_d_8621_8402)">
<path d="M77 156.667C77 155.93 76.403 155.333 75.6666 155.333C74.9303 155.333 74.3333 155.93 74.3333 156.667C74.3333 157.403 74.9303 158 75.6666 158C76.403 158 77 157.403 77 156.667Z" fill="black"/>
<path d="M77 156.667C77 155.93 76.403 155.333 75.6666 155.333C74.9303 155.333 74.3333 155.93 74.3333 156.667C74.3333 157.403 74.9303 158 75.6666 158C76.403 158 77 157.403 77 156.667Z" stroke="black"/>
</g>
<g filter="url(#filter9_d_8621_8402)">
<path d="M95.6667 168.667C95.6667 167.93 95.0697 167.333 94.3333 167.333C93.597 167.333 93 167.93 93 168.667C93 169.403 93.597 170 94.3333 170C95.0697 170 95.6667 169.403 95.6667 168.667Z" fill="black"/>
<path d="M95.6667 168.667C95.6667 167.93 95.0697 167.333 94.3333 167.333C93.597 167.333 93 167.93 93 168.667C93 169.403 93.597 170 94.3333 170C95.0697 170 95.6667 169.403 95.6667 168.667Z" stroke="black"/>
</g>
<g filter="url(#filter10_d_8621_8402)">
<path d="M63.6667 91.3333C63.6667 90.597 63.0697 90 62.3333 90C61.597 90 61 90.597 61 91.3333C61 92.0697 61.597 92.6667 62.3333 92.6667C63.0697 92.6667 63.6667 92.0697 63.6667 91.3333Z" fill="black"/>
<path d="M63.6667 91.3333C63.6667 90.597 63.0697 90 62.3333 90C61.597 90 61 90.597 61 91.3333C61 92.0697 61.597 92.6667 62.3333 92.6667C63.0697 92.6667 63.6667 92.0697 63.6667 91.3333Z" stroke="black"/>
</g>
<g filter="url(#filter11_d_8621_8402)">
<path d="M63.6667 136.667C63.6667 135.93 63.0697 135.333 62.3333 135.333C61.597 135.333 61 135.93 61 136.667C61 137.403 61.597 138 62.3333 138C63.0697 138 63.6667 137.403 63.6667 136.667Z" fill="black"/>
<path d="M63.6667 136.667C63.6667 135.93 63.0697 135.333 62.3333 135.333C61.597 135.333 61 135.93 61 136.667C61 137.403 61.597 138 62.3333 138C63.0697 138 63.6667 137.403 63.6667 136.667Z" stroke="black"/>
</g>
<g filter="url(#filter12_d_8621_8402)">
<path d="M95.6667 59.3333C95.6667 58.597 95.0697 58 94.3333 58C93.597 58 93 58.597 93 59.3333C93 60.0697 93.597 60.6667 94.3333 60.6667C95.0697 60.6667 95.6667 60.0697 95.6667 59.3333Z" fill="black"/>
<path d="M95.6667 59.3333C95.6667 58.597 95.0697 58 94.3333 58C93.597 58 93 58.597 93 59.3333C93 60.0697 93.597 60.6667 94.3333 60.6667C95.0697 60.6667 95.6667 60.0697 95.6667 59.3333Z" stroke="black"/>
</g>
<g filter="url(#filter13_d_8621_8402)">
<path d="M173 136.667C173 135.93 172.403 135.333 171.667 135.333C170.93 135.333 170.333 135.93 170.333 136.667C170.333 137.403 170.93 138 171.667 138C172.403 138 173 137.403 173 136.667Z" fill="black"/>
<path d="M173 136.667C173 135.93 172.403 135.333 171.667 135.333C170.93 135.333 170.333 135.93 170.333 136.667C170.333 137.403 170.93 138 171.667 138C172.403 138 173 137.403 173 136.667Z" stroke="black"/>
</g>
<g filter="url(#filter14_d_8621_8402)">
<path d="M161 156.667C161 155.93 160.403 155.333 159.667 155.333C158.93 155.333 158.333 155.93 158.333 156.667C158.333 157.403 158.93 158 159.667 158C160.403 158 161 157.403 161 156.667Z" fill="black"/>
<path d="M161 156.667C161 155.93 160.403 155.333 159.667 155.333C158.93 155.333 158.333 155.93 158.333 156.667C158.333 157.403 158.93 158 159.667 158C160.403 158 161 157.403 161 156.667Z" stroke="black"/>
</g>
<g filter="url(#filter15_d_8621_8402)">
<path d="M142.333 168.667C142.333 167.93 141.736 167.333 141 167.333C140.264 167.333 139.667 167.93 139.667 168.667C139.667 169.403 140.264 170 141 170C141.736 170 142.333 169.403 142.333 168.667Z" fill="black"/>
<path d="M142.333 168.667C142.333 167.93 141.736 167.333 141 167.333C140.264 167.333 139.667 167.93 139.667 168.667C139.667 169.403 140.264 170 141 170C141.736 170 142.333 169.403 142.333 168.667Z" stroke="black"/>
</g>
<g filter="url(#filter16_d_8621_8402)">
<path d="M179.667 114C179.667 112.527 178.473 111.333 177 111.333C175.527 111.333 174.333 112.527 174.333 114C174.333 115.473 175.527 116.667 177 116.667C178.473 116.667 179.667 115.473 179.667 114Z" fill="black"/>
<path d="M179.667 114C179.667 112.527 178.473 111.333 177 111.333C175.527 111.333 174.333 112.527 174.333 114C174.333 115.473 175.527 116.667 177 116.667C178.473 116.667 179.667 115.473 179.667 114Z" stroke="black"/>
</g>
<g filter="url(#filter17_d_8621_8402)">
<path d="M119.667 174C119.667 172.527 118.473 171.333 117 171.333C115.527 171.333 114.333 172.527 114.333 174C114.333 175.473 115.527 176.667 117 176.667C118.473 176.667 119.667 175.473 119.667 174Z" fill="black"/>
<path d="M119.667 174C119.667 172.527 118.473 171.333 117 171.333C115.527 171.333 114.333 172.527 114.333 174C114.333 175.473 115.527 176.667 117 176.667C118.473 176.667 119.667 175.473 119.667 174Z" stroke="black"/>
</g>
<g filter="url(#filter18_d_8621_8402)">
<path d="M59.6666 114C59.6666 112.527 58.4727 111.333 57 111.333C55.5272 111.333 54.3333 112.527 54.3333 114C54.3333 115.473 55.5272 116.667 57 116.667C58.4727 116.667 59.6666 115.473 59.6666 114Z" fill="black"/>
<path d="M59.6666 114C59.6666 112.527 58.4727 111.333 57 111.333C55.5272 111.333 54.3333 112.527 54.3333 114C54.3333 115.473 55.5272 116.667 57 116.667C58.4727 116.667 59.6666 115.473 59.6666 114Z" stroke="black"/>
</g>
<g filter="url(#filter19_d_8621_8402)">
<path d="M194.333 23.3333C193 23.3333 181 36.6666 181 36.6666L194.333 49.9999C199.54 44.7929 207.667 37.9999 207.667 36.6666C207.667 35.3333 195.667 23.3333 194.333 23.3333Z" fill="black"/>
<path d="M194.333 23.3333C193 23.3333 181 36.6666 181 36.6666L194.333 49.9999C199.54 44.7929 207.667 37.9999 207.667 36.6666C207.667 35.3333 195.667 23.3333 194.333 23.3333Z" stroke="black"/>
</g>
<g filter="url(#filter20_d_8621_8402)">
<path d="M194.333 28.6665C193.533 28.6665 186.333 36.1332 186.333 36.6665C186.333 37.1998 193.8 44.6665 194.333 44.6665C194.867 44.6665 202.333 37.4665 202.333 36.6665C202.333 35.8665 195.133 28.6665 194.333 28.6665Z" fill="#F3E2C6"/>
<path d="M194.333 28.6665C193.533 28.6665 186.333 36.1332 186.333 36.6665C186.333 37.1998 193.8 44.6665 194.333 44.6665C194.867 44.6665 202.333 37.4665 202.333 36.6665C202.333 35.8665 195.133 28.6665 194.333 28.6665Z" stroke="black"/>
</g>
<path d="M185.667 46.6666C174.182 34.9634 159.052 27.7805 146.244 23.4545C132.755 18.8986 120.333 29.7629 120.333 43.9999C120.333 43.9999 144.343 40.6666 167.667 64.6666C174.756 71.9612 179.322 79.0711 182.243 85.4347C187.892 97.74 199.46 110.667 213 110.667C213 110.667 209.54 70.9941 185.667 46.6666Z" fill="#0F4C7C" stroke="black"/>
<path d="M183.667 183.333C195.37 171.848 202.553 156.718 206.879 143.91C211.435 130.422 200.57 118 186.333 118C186.333 118 189.667 142.009 165.667 165.333C158.372 172.423 151.262 176.988 144.899 179.91C132.593 185.559 119.667 197.127 119.667 210.667C119.667 210.667 159.339 207.207 183.667 183.333Z" fill="#CFB69A" stroke="black"/>
<path d="M48.3333 182C59.8182 193.703 74.9485 200.886 87.7562 205.212C101.245 209.768 113.667 198.904 113.667 184.667C113.667 184.667 89.6572 188 66.3333 164C59.2441 156.705 54.6783 149.595 51.7569 143.232C46.1076 130.926 34.5401 118 21 118C21 118 24.4597 157.672 48.3333 182Z" fill="#475968" stroke="black"/>
<path d="M49 45.3334C37.2968 56.8183 30.1138 71.9486 25.7879 84.7564C21.232 98.2447 32.0963 110.667 46.3333 110.667C46.3333 110.667 43 86.6573 67 63.3334C74.2946 56.2442 81.4045 51.6784 87.7681 48.757C100.073 43.1077 113 31.5402 113 18.0001C113 18.0001 73.3274 21.4598 49 45.3334Z" fill="#CF4C6B" stroke="black"/>
<g filter="url(#filter21_d_8621_8402)">
<path d="M114.333 68.6667V109.333H119.667V68.6667C119.667 67.1939 118.473 66 117 66C115.527 66 114.333 67.1939 114.333 68.6667Z" fill="black" fill-opacity="0.5" shape-rendering="crispEdges"/>
</g>
<g filter="url(#filter22_d_8621_8402)">
<path d="M132.199 71.7364L116.636 109.307L121.564 111.348L137.126 73.7774C137.69 72.4167 137.044 70.8568 135.683 70.2932C134.322 69.7296 132.762 70.3757 132.199 71.7364Z" fill="black" fill-opacity="0.75" shape-rendering="crispEdges"/>
</g>
<g filter="url(#filter23_d_8621_8402)">
<path d="M146.119 81.3402L117.364 110.096L121.135 113.867L149.891 85.1114C150.932 84.07 150.932 82.3816 149.891 81.3402C148.849 80.2988 147.161 80.2988 146.119 81.3402Z" fill="black"/>
</g>
</g>
<defs>
<filter id="filter0_ddd_8621_8402" x="0.5" y="0.5" width="233" height="233" filterUnits="userSpaceOnUse" color-interpolation-filters="sRGB">
<feFlood flood-opacity="0" result="BackgroundImageFix"/>
<feColorMatrix in="SourceAlpha" type="matrix" values="0 0 0 0 0 0 0 0 0 0 0 0 0 0 0 0 0 0 127 0" result="hardAlpha"/>
<feMorphology radius="3" operator="erode" in="SourceAlpha" result="effect1_dropShadow_8621_8402"/>
<feOffset dy="5"/>
<feGaussianBlur stdDeviation="2.5"/>
<feComposite in2="hardAlpha" operator="out"/>
<feColorMatrix type="matrix" values="0 0 0 0 0 0 0 0 0 0 0 0 0 0 0 0 0 0 0.2 0"/>
<feBlend mode="normal" in2="BackgroundImageFix" result="effect1_dropShadow_8621_8402"/>
<feColorMatrix in="SourceAlpha" type="matrix" values="0 0 0 0 0 0 0 0 0 0 0 0 0 0 0 0 0 0 127 0" result="hardAlpha"/>
<feMorphology radius="1" operator="dilate" in="SourceAlpha" result="effect2_dropShadow_8621_8402"/>
<feOffset dy="8"/>
<feGaussianBlur stdDeviation="5"/>
<feComposite in2="hardAlpha" operator="out"/>
<feColorMatrix type="matrix" values="0 0 0 0 0 0 0 0 0 0 0 0 0 0 0 0 0 0 0.14 0"/>
<feBlend mode="normal" in2="effect1_dropShadow_8621_8402" result="effect2_dropShadow_8621_8402"/>
<feColorMatrix in="SourceAlpha" type="matrix" values="0 0 0 0 0 0 0 0 0 0 0 0 0 0 0 0 0 0 127 0" result="hardAlpha"/>
<feMorphology radius="2" operator="dilate" in="SourceAlpha" result="effect3_dropShadow_8621_8402"/>
<feOffset dy="3"/>
<feGaussianBlur stdDeviation="7"/>
<feComposite in2="hardAlpha" operator="out"/>
<feColorMatrix type="matrix" values="0 0 0 0 0 0 0 0 0 0 0 0 0 0 0 0 0 0 0.12 0"/>
<feBlend mode="normal" in2="effect2_dropShadow_8621_8402" result="effect3_dropShadow_8621_8402"/>
<feBlend mode="normal" in="SourceGraphic" in2="effect3_dropShadow_8621_8402" result="shape"/>
</filter>
<filter id="filter1_d_8621_8402" x="12.5" y="13.5" width="209" height="209" filterUnits="userSpaceOnUse" color-interpolation-filters="sRGB">
<feFlood flood-opacity="0" result="BackgroundImageFix"/>
<feColorMatrix in="SourceAlpha" type="matrix" values="0 0 0 0 0 0 0 0 0 0 0 0 0 0 0 0 0 0 127 0" result="hardAlpha"/>
<feOffset dy="4"/>
<feGaussianBlur stdDeviation="2"/>
<feComposite in2="hardAlpha" operator="out"/>
<feColorMatrix type="matrix" values="0 0 0 0 0 0 0 0 0 0 0 0 0 0 0 0 0 0 0.25 0"/>
<feBlend mode="normal" in2="BackgroundImageFix" result="effect1_dropShadow_8621_8402"/>
<feBlend mode="normal" in="SourceGraphic" in2="effect1_dropShadow_8621_8402" result="shape"/>
</filter>
<filter id="filter2_d_8621_8402" x="109.833" y="50.8333" width="14.3333" height="14.3333" filterUnits="userSpaceOnUse" color-interpolation-filters="sRGB">
<feFlood flood-opacity="0" result="BackgroundImageFix"/>
<feColorMatrix in="SourceAlpha" type="matrix" values="0 0 0 0 0 0 0 0 0 0 0 0 0 0 0 0 0 0 127 0" result="hardAlpha"/>
<feOffset dy="4"/>
<feGaussianBlur stdDeviation="2"/>
<feComposite in2="hardAlpha" operator="out"/>
<feColorMatrix type="matrix" values="0 0 0 0 0 0 0 0 0 0 0 0 0 0 0 0 0 0 0.25 0"/>
<feBlend mode="normal" in2="BackgroundImageFix" result="effect1_dropShadow_8621_8402"/>
<feBlend mode="normal" in="SourceGraphic" in2="effect1_dropShadow_8621_8402" result="shape"/>
</filter>
<filter id="filter3_d_8621_8402" x="107.167" y="108.167" width="19.6667" height="19.6667" filterUnits="userSpaceOnUse" color-interpolation-filters="sRGB">
<feFlood flood-opacity="0" result="BackgroundImageFix"/>
<feColorMatrix in="SourceAlpha" type="matrix" values="0 0 0 0 0 0 0 0 0 0 0 0 0 0 0 0 0 0 127 0" result="hardAlpha"/>
<feOffset dy="4"/>
<feGaussianBlur stdDeviation="2"/>
<feComposite in2="hardAlpha" operator="out"/>
<feColorMatrix type="matrix" values="0 0 0 0 0 0 0 0 0 0 0 0 0 0 0 0 0 0 0.25 0"/>
<feBlend mode="normal" in2="BackgroundImageFix" result="effect1_dropShadow_8621_8402"/>
<feBlend mode="normal" in="SourceGraphic" in2="effect1_dropShadow_8621_8402" result="shape"/>
</filter>
<filter id="filter4_d_8621_8402" x="153.833" y="70.8333" width="11.6666" height="11.6667" filterUnits="userSpaceOnUse" color-interpolation-filters="sRGB">
<feFlood flood-opacity="0" result="BackgroundImageFix"/>
<feColorMatrix in="SourceAlpha" type="matrix" values="0 0 0 0 0 0 0 0 0 0 0 0 0 0 0 0 0 0 127 0" result="hardAlpha"/>
<feOffset dy="4"/>
<feGaussianBlur stdDeviation="2"/>
<feComposite in2="hardAlpha" operator="out"/>
<feColorMatrix type="matrix" values="0 0 0 0 0 0 0 0 0 0 0 0 0 0 0 0 0 0 0.25 0"/>
<feBlend mode="normal" in2="BackgroundImageFix" result="effect1_dropShadow_8621_8402"/>
<feBlend mode="normal" in="SourceGraphic" in2="effect1_dropShadow_8621_8402" result="shape"/>
</filter>
<filter id="filter5_d_8621_8402" x="135.167" y="57.5" width="11.6667" height="11.6667" filterUnits="userSpaceOnUse" color-interpolation-filters="sRGB">
<feFlood flood-opacity="0" result="BackgroundImageFix"/>
<feColorMatrix in="SourceAlpha" type="matrix" values="0 0 0 0 0 0 0 0 0 0 0 0 0 0 0 0 0 0 127 0" result="hardAlpha"/>
<feOffset dy="4"/>
<feGaussianBlur stdDeviation="2"/>
<feComposite in2="hardAlpha" operator="out"/>
<feColorMatrix type="matrix" values="0 0 0 0 0 0 0 0 0 0 0 0 0 0 0 0 0 0 0.25 0"/>
<feBlend mode="normal" in2="BackgroundImageFix" result="effect1_dropShadow_8621_8402"/>
<feBlend mode="normal" in="SourceGraphic" in2="effect1_dropShadow_8621_8402" result="shape"/>
</filter>
<filter id="filter6_d_8621_8402" x="165.833" y="89.5" width="11.6666" height="11.6667" filterUnits="userSpaceOnUse" color-interpolation-filters="sRGB">
<feFlood flood-opacity="0" result="BackgroundImageFix"/>
<feColorMatrix in="SourceAlpha" type="matrix" values="0 0 0 0 0 0 0 0 0 0 0 0 0 0 0 0 0 0 127 0" result="hardAlpha"/>
<feOffset dy="4"/>
<feGaussianBlur stdDeviation="2"/>
<feComposite in2="hardAlpha" operator="out"/>
<feColorMatrix type="matrix" values="0 0 0 0 0 0 0 0 0 0 0 0 0 0 0 0 0 0 0.25 0"/>
<feBlend mode="normal" in2="BackgroundImageFix" result="effect1_dropShadow_8621_8402"/>
<feBlend mode="normal" in="SourceGraphic" in2="effect1_dropShadow_8621_8402" result="shape"/>
</filter>
<filter id="filter7_d_8621_8402" x="69.8333" y="70.8333" width="11.6667" height="11.6667" filterUnits="userSpaceOnUse" color-interpolation-filters="sRGB">
<feFlood flood-opacity="0" result="BackgroundImageFix"/>
<feColorMatrix in="SourceAlpha" type="matrix" values="0 0 0 0 0 0 0 0 0 0 0 0 0 0 0 0 0 0 127 0" result="hardAlpha"/>
<feOffset dy="4"/>
<feGaussianBlur stdDeviation="2"/>
<feComposite in2="hardAlpha" operator="out"/>
<feColorMatrix type="matrix" values="0 0 0 0 0 0 0 0 0 0 0 0 0 0 0 0 0 0 0.25 0"/>
<feBlend mode="normal" in2="BackgroundImageFix" result="effect1_dropShadow_8621_8402"/>
<feBlend mode="normal" in="SourceGraphic" in2="effect1_dropShadow_8621_8402" result="shape"/>
</filter>
<filter id="filter8_d_8621_8402" x="69.8333" y="154.833" width="11.6667" height="11.6667" filterUnits="userSpaceOnUse" color-interpolation-filters="sRGB">
<feFlood flood-opacity="0" result="BackgroundImageFix"/>
<feColorMatrix in="SourceAlpha" type="matrix" values="0 0 0 0 0 0 0 0 0 0 0 0 0 0 0 0 0 0 127 0" result="hardAlpha"/>
<feOffset dy="4"/>
<feGaussianBlur stdDeviation="2"/>
<feComposite in2="hardAlpha" operator="out"/>
<feColorMatrix type="matrix" values="0 0 0 0 0 0 0 0 0 0 0 0 0 0 0 0 0 0 0.25 0"/>
<feBlend mode="normal" in2="BackgroundImageFix" result="effect1_dropShadow_8621_8402"/>
<feBlend mode="normal" in="SourceGraphic" in2="effect1_dropShadow_8621_8402" result="shape"/>
</filter>
<filter id="filter9_d_8621_8402" x="88.5" y="166.833" width="11.6667" height="11.6667" filterUnits="userSpaceOnUse" color-interpolation-filters="sRGB">
<feFlood flood-opacity="0" result="BackgroundImageFix"/>
<feColorMatrix in="SourceAlpha" type="matrix" values="0 0 0 0 0 0 0 0 0 0 0 0 0 0 0 0 0 0 127 0" result="hardAlpha"/>
<feOffset dy="4"/>
<feGaussianBlur stdDeviation="2"/>
<feComposite in2="hardAlpha" operator="out"/>
<feColorMatrix type="matrix" values="0 0 0 0 0 0 0 0 0 0 0 0 0 0 0 0 0 0 0.25 0"/>
<feBlend mode="normal" in2="BackgroundImageFix" result="effect1_dropShadow_8621_8402"/>
<feBlend mode="normal" in="SourceGraphic" in2="effect1_dropShadow_8621_8402" result="shape"/>
</filter>
<filter id="filter10_d_8621_8402" x="56.5" y="89.5" width="11.6667" height="11.6667" filterUnits="userSpaceOnUse" color-interpolation-filters="sRGB">
<feFlood flood-opacity="0" result="BackgroundImageFix"/>
<feColorMatrix in="SourceAlpha" type="matrix" values="0 0 0 0 0 0 0 0 0 0 0 0 0 0 0 0 0 0 127 0" result="hardAlpha"/>
<feOffset dy="4"/>
<feGaussianBlur stdDeviation="2"/>
<feComposite in2="hardAlpha" operator="out"/>
<feColorMatrix type="matrix" values="0 0 0 0 0 0 0 0 0 0 0 0 0 0 0 0 0 0 0.25 0"/>
<feBlend mode="normal" in2="BackgroundImageFix" result="effect1_dropShadow_8621_8402"/>
<feBlend mode="normal" in="SourceGraphic" in2="effect1_dropShadow_8621_8402" result="shape"/>
</filter>
<filter id="filter11_d_8621_8402" x="56.5" y="134.833" width="11.6667" height="11.6667" filterUnits="userSpaceOnUse" color-interpolation-filters="sRGB">
<feFlood flood-opacity="0" result="BackgroundImageFix"/>
<feColorMatrix in="SourceAlpha" type="matrix" values="0 0 0 0 0 0 0 0 0 0 0 0 0 0 0 0 0 0 127 0" result="hardAlpha"/>
<feOffset dy="4"/>
<feGaussianBlur stdDeviation="2"/>
<feComposite in2="hardAlpha" operator="out"/>
<feColorMatrix type="matrix" values="0 0 0 0 0 0 0 0 0 0 0 0 0 0 0 0 0 0 0.25 0"/>
<feBlend mode="normal" in2="BackgroundImageFix" result="effect1_dropShadow_8621_8402"/>
<feBlend mode="normal" in="SourceGraphic" in2="effect1_dropShadow_8621_8402" result="shape"/>
</filter>
<filter id="filter12_d_8621_8402" x="88.5" y="57.5" width="11.6667" height="11.6667" filterUnits="userSpaceOnUse" color-interpolation-filters="sRGB">
<feFlood flood-opacity="0" result="BackgroundImageFix"/>
<feColorMatrix in="SourceAlpha" type="matrix" values="0 0 0 0 0 0 0 0 0 0 0 0 0 0 0 0 0 0 127 0" result="hardAlpha"/>
<feOffset dy="4"/>
<feGaussianBlur stdDeviation="2"/>
<feComposite in2="hardAlpha" operator="out"/>
<feColorMatrix type="matrix" values="0 0 0 0 0 0 0 0 0 0 0 0 0 0 0 0 0 0 0.25 0"/>
<feBlend mode="normal" in2="BackgroundImageFix" result="effect1_dropShadow_8621_8402"/>
<feBlend mode="normal" in="SourceGraphic" in2="effect1_dropShadow_8621_8402" result="shape"/>
</filter>
<filter id="filter13_d_8621_8402" x="165.833" y="134.833" width="11.6666" height="11.6667" filterUnits="userSpaceOnUse" color-interpolation-filters="sRGB">
<feFlood flood-opacity="0" result="BackgroundImageFix"/>
<feColorMatrix in="SourceAlpha" type="matrix" values="0 0 0 0 0 0 0 0 0 0 0 0 0 0 0 0 0 0 127 0" result="hardAlpha"/>
<feOffset dy="4"/>
<feGaussianBlur stdDeviation="2"/>
<feComposite in2="hardAlpha" operator="out"/>
<feColorMatrix type="matrix" values="0 0 0 0 0 0 0 0 0 0 0 0 0 0 0 0 0 0 0.25 0"/>
<feBlend mode="normal" in2="BackgroundImageFix" result="effect1_dropShadow_8621_8402"/>
<feBlend mode="normal" in="SourceGraphic" in2="effect1_dropShadow_8621_8402" result="shape"/>
</filter>
<filter id="filter14_d_8621_8402" x="153.833" y="154.833" width="11.6666" height="11.6667" filterUnits="userSpaceOnUse" color-interpolation-filters="sRGB">
<feFlood flood-opacity="0" result="BackgroundImageFix"/>
<feColorMatrix in="SourceAlpha" type="matrix" values="0 0 0 0 0 0 0 0 0 0 0 0 0 0 0 0 0 0 127 0" result="hardAlpha"/>
<feOffset dy="4"/>
<feGaussianBlur stdDeviation="2"/>
<feComposite in2="hardAlpha" operator="out"/>
<feColorMatrix type="matrix" values="0 0 0 0 0 0 0 0 0 0 0 0 0 0 0 0 0 0 0.25 0"/>
<feBlend mode="normal" in2="BackgroundImageFix" result="effect1_dropShadow_8621_8402"/>
<feBlend mode="normal" in="SourceGraphic" in2="effect1_dropShadow_8621_8402" result="shape"/>
</filter>
<filter id="filter15_d_8621_8402" x="135.167" y="166.833" width="11.6667" height="11.6667" filterUnits="userSpaceOnUse" color-interpolation-filters="sRGB">
<feFlood flood-opacity="0" result="BackgroundImageFix"/>
<feColorMatrix in="SourceAlpha" type="matrix" values="0 0 0 0 0 0 0 0 0 0 0 0 0 0 0 0 0 0 127 0" result="hardAlpha"/>
<feOffset dy="4"/>
<feGaussianBlur stdDeviation="2"/>
<feComposite in2="hardAlpha" operator="out"/>
<feColorMatrix type="matrix" values="0 0 0 0 0 0 0 0 0 0 0 0 0 0 0 0 0 0 0.25 0"/>
<feBlend mode="normal" in2="BackgroundImageFix" result="effect1_dropShadow_8621_8402"/>
<feBlend mode="normal" in="SourceGraphic" in2="effect1_dropShadow_8621_8402" result="shape"/>
</filter>
<filter id="filter16_d_8621_8402" x="169.833" y="110.833" width="14.3333" height="14.3333" filterUnits="userSpaceOnUse" color-interpolation-filters="sRGB">
<feFlood flood-opacity="0" result="BackgroundImageFix"/>
<feColorMatrix in="SourceAlpha" type="matrix" values="0 0 0 0 0 0 0 0 0 0 0 0 0 0 0 0 0 0 127 0" result="hardAlpha"/>
<feOffset dy="4"/>
<feGaussianBlur stdDeviation="2"/>
<feComposite in2="hardAlpha" operator="out"/>
<feColorMatrix type="matrix" values="0 0 0 0 0 0 0 0 0 0 0 0 0 0 0 0 0 0 0.25 0"/>
<feBlend mode="normal" in2="BackgroundImageFix" result="effect1_dropShadow_8621_8402"/>
<feBlend mode="normal" in="SourceGraphic" in2="effect1_dropShadow_8621_8402" result="shape"/>
</filter>
<filter id="filter17_d_8621_8402" x="109.833" y="170.833" width="14.3333" height="14.3333" filterUnits="userSpaceOnUse" color-interpolation-filters="sRGB">
<feFlood flood-opacity="0" result="BackgroundImageFix"/>
<feColorMatrix in="SourceAlpha" type="matrix" values="0 0 0 0 0 0 0 0 0 0 0 0 0 0 0 0 0 0 127 0" result="hardAlpha"/>
<feOffset dy="4"/>
<feGaussianBlur stdDeviation="2"/>
<feComposite in2="hardAlpha" operator="out"/>
<feColorMatrix type="matrix" values="0 0 0 0 0 0 0 0 0 0 0 0 0 0 0 0 0 0 0.25 0"/>
<feBlend mode="normal" in2="BackgroundImageFix" result="effect1_dropShadow_8621_8402"/>
<feBlend mode="normal" in="SourceGraphic" in2="effect1_dropShadow_8621_8402" result="shape"/>
</filter>
<filter id="filter18_d_8621_8402" x="49.8333" y="110.833" width="14.3333" height="14.3333" filterUnits="userSpaceOnUse" color-interpolation-filters="sRGB">
<feFlood flood-opacity="0" result="BackgroundImageFix"/>
<feColorMatrix in="SourceAlpha" type="matrix" values="0 0 0 0 0 0 0 0 0 0 0 0 0 0 0 0 0 0 127 0" result="hardAlpha"/>
<feOffset dy="4"/>
<feGaussianBlur stdDeviation="2"/>
<feComposite in2="hardAlpha" operator="out"/>
<feColorMatrix type="matrix" values="0 0 0 0 0 0 0 0 0 0 0 0 0 0 0 0 0 0 0.25 0"/>
<feBlend mode="normal" in2="BackgroundImageFix" result="effect1_dropShadow_8621_8402"/>
<feBlend mode="normal" in="SourceGraphic" in2="effect1_dropShadow_8621_8402" result="shape"/>
</filter>
<filter id="filter19_d_8621_8402" x="176.311" y="22.8333" width="35.8557" height="35.8738" filterUnits="userSpaceOnUse" color-interpolation-filters="sRGB">
<feFlood flood-opacity="0" result="BackgroundImageFix"/>
<feColorMatrix in="SourceAlpha" type="matrix" values="0 0 0 0 0 0 0 0 0 0 0 0 0 0 0 0 0 0 127 0" result="hardAlpha"/>
<feOffset dy="4"/>
<feGaussianBlur stdDeviation="2"/>
<feComposite in2="hardAlpha" operator="out"/>
<feColorMatrix type="matrix" values="0 0 0 0 0 0 0 0 0 0 0 0 0 0 0 0 0 0 0.25 0"/>
<feBlend mode="normal" in2="BackgroundImageFix" result="effect1_dropShadow_8621_8402"/>
<feBlend mode="normal" in="SourceGraphic" in2="effect1_dropShadow_8621_8402" result="shape"/>
</filter>
<filter id="filter20_d_8621_8402" x="181.833" y="28.1665" width="25" height="25" filterUnits="userSpaceOnUse" color-interpolation-filters="sRGB">
<feFlood flood-opacity="0" result="BackgroundImageFix"/>
<feColorMatrix in="SourceAlpha" type="matrix" values="0 0 0 0 0 0 0 0 0 0 0 0 0 0 0 0 0 0 127 0" result="hardAlpha"/>
<feOffset dy="4"/>
<feGaussianBlur stdDeviation="2"/>
<feComposite in2="hardAlpha" operator="out"/>
<feColorMatrix type="matrix" values="0 0 0 0 0 0 0 0 0 0 0 0 0 0 0 0 0 0 0.25 0"/>
<feBlend mode="normal" in2="BackgroundImageFix" result="effect1_dropShadow_8621_8402"/>
<feBlend mode="normal" in="SourceGraphic" in2="effect1_dropShadow_8621_8402" result="shape"/>
</filter>
<filter id="filter21_d_8621_8402" x="110.333" y="66" width="13.3333" height="51.3333" filterUnits="userSpaceOnUse" color-interpolation-filters="sRGB">
<feFlood flood-opacity="0" result="BackgroundImageFix"/>
<feColorMatrix in="SourceAlpha" type="matrix" values="0 0 0 0 0 0 0 0 0 0 0 0 0 0 0 0 0 0 127 0" result="hardAlpha"/>
<feOffset dy="4"/>
<feGaussianBlur stdDeviation="2"/>
<feComposite in2="hardAlpha" operator="out"/>
<feColorMatrix type="matrix" values="0 0 0 0 0 0 0 0 0 0 0 0 0 0 0 0 0 0 0.25 0"/>
<feBlend mode="normal" in2="BackgroundImageFix" result="effect1_dropShadow_8621_8402"/>
<feBlend mode="normal" in="SourceGraphic" in2="effect1_dropShadow_8621_8402" result="shape"/>
</filter>
<filter id="filter22_d_8621_8402" x="112.636" y="70.0896" width="28.6935" height="49.2588" filterUnits="userSpaceOnUse" color-interpolation-filters="sRGB">
<feFlood flood-opacity="0" result="BackgroundImageFix"/>
<feColorMatrix in="SourceAlpha" type="matrix" values="0 0 0 0 0 0 0 0 0 0 0 0 0 0 0 0 0 0 127 0" result="hardAlpha"/>
<feOffset dy="4"/>
<feGaussianBlur stdDeviation="2"/>
<feComposite in2="hardAlpha" operator="out"/>
<feColorMatrix type="matrix" values="0 0 0 0 0 0 0 0 0 0 0 0 0 0 0 0 0 0 0.25 0"/>
<feBlend mode="normal" in2="BackgroundImageFix" result="effect1_dropShadow_8621_8402"/>
<feBlend mode="normal" in="SourceGraphic" in2="effect1_dropShadow_8621_8402" result="shape"/>
</filter>
<filter id="filter23_d_8621_8402" x="113.364" y="80.5591" width="41.308" height="41.3081" filterUnits="userSpaceOnUse" color-interpolation-filters="sRGB">
<feFlood flood-opacity="0" result="BackgroundImageFix"/>
<feColorMatrix in="SourceAlpha" type="matrix" values="0 0 0 0 0 0 0 0 0 0 0 0 0 0 0 0 0 0 127 0" result="hardAlpha"/>
<feOffset dy="4"/>
<feGaussianBlur stdDeviation="2"/>
<feComposite in2="hardAlpha" operator="out"/>
<feColorMatrix type="matrix" values="0 0 0 0 0 0 0 0 0 0 0 0 0 0 0 0 0 0 0.25 0"/>
<feBlend mode="normal" in2="BackgroundImageFix" result="effect1_dropShadow_8621_8402"/>
<feBlend mode="normal" in="SourceGraphic" in2="effect1_dropShadow_8621_8402" result="shape"/>
</filter>
</defs>
</svg>
